<svg width="461" height="667" viewBox="0 0 461 667" fill="none" xmlns="http://www.w3.org/2000/svg">
<mask id="mask0" mask-type="alpha" maskUnits="userSpaceOnUse" x="0" y="0" width="461" height="667">
<rect width="461" height="667" fill="#C4C4C4"/>
</mask>
<g mask="url(#mask0)">
<rect width="461" height="576.231" fill="#331F9F"/>
<path d="M0 662.012V561.953H461V667L232.075 586.89L0 662.012Z" fill="#331F9F"/>
<rect x="74.041" y="227.083" width="96.2253" height="96.2253" transform="rotate(-135 74.041 227.083)" fill="#A3F7E9"/>
<path d="M3.71576 -4.39224L113.174 -42.1565L91.1497 71.5193L3.71576 -4.39224Z" fill="#DF7668"/>
<circle cx="166.353" cy="67.3533" r="50.6449" transform="rotate(-79.035 166.353 67.3533)" fill="#FCDC3A"/>
<path d="M249.815 72.2431L365.598 71.0253L308.761 171.906L249.815 72.2431Z" fill="#7C6DF1"/>
<path d="M304.442 -98.2193L230.529 -79.0705L211.838 -12.2311L264.586 44.3103L340.547 23.7598L359.237 -43.0795L304.442 -98.2193Z" fill="#E598C9"/>
</g>
</svg>
