<svg width="970" height="242" viewBox="0 0 970 242" fill="none" xmlns="http://www.w3.org/2000/svg">
<path d="M695.524 55.2L689.982 72.064L684.542 55.2H679.442L673.832 71.928L668.46 55.2H662.748L670.568 79H676.45L681.856 62.884L687.092 79H693.008L700.794 55.2H695.524ZM710.838 79.272C716.652 79.272 720.868 75.362 720.868 69.854C720.868 64.346 716.652 60.436 710.838 60.436C705.024 60.436 700.774 64.346 700.774 69.854C700.774 75.362 705.024 79.272 710.838 79.272ZM710.838 74.92C708.186 74.92 706.146 73.016 706.146 69.854C706.146 66.692 708.186 64.788 710.838 64.788C713.49 64.788 715.496 66.692 715.496 69.854C715.496 73.016 713.49 74.92 710.838 74.92ZM747.839 60.436C745.085 60.436 742.705 61.558 741.243 63.428C739.951 61.422 737.775 60.436 735.225 60.436C732.879 60.436 730.839 61.252 729.479 62.816V60.708H724.413V79H729.717V69.82C729.717 66.556 731.383 65.026 733.729 65.026C735.939 65.026 737.197 66.386 737.197 69.344V79H742.501V69.82C742.501 66.556 744.167 65.026 746.547 65.026C748.689 65.026 750.015 66.386 750.015 69.344V79H755.319V68.528C755.319 62.952 752.191 60.436 747.839 60.436ZM778.19 69.922C778.19 64.04 774.042 60.436 768.67 60.436C763.094 60.436 758.912 64.38 758.912 69.854C758.912 75.294 763.026 79.272 769.35 79.272C772.648 79.272 775.198 78.252 776.898 76.314L774.076 73.254C772.818 74.444 771.424 75.022 769.486 75.022C766.698 75.022 764.76 73.628 764.25 71.35H778.088C778.122 70.908 778.19 70.33 778.19 69.922ZM768.704 64.448C771.084 64.448 772.818 65.944 773.192 68.256H764.182C764.556 65.91 766.29 64.448 768.704 64.448ZM792.839 60.436C790.357 60.436 788.215 61.286 786.787 62.85V60.708H781.721V79H787.025V69.956C787.025 66.59 788.861 65.026 791.411 65.026C793.757 65.026 795.117 66.386 795.117 69.344V79H800.421V68.528C800.421 62.952 797.157 60.436 792.839 60.436ZM664.822 120H670.33V96.2H664.822V120ZM686.722 101.436C684.24 101.436 682.098 102.286 680.67 103.85V101.708H675.604V120H680.908V110.956C680.908 107.59 682.744 106.026 685.294 106.026C687.64 106.026 689 107.386 689 110.344V120H694.304V109.528C694.304 103.952 691.04 101.436 686.722 101.436ZM672.642 161.408C679.442 161.408 682.74 158.008 682.74 154.03C682.74 145.292 668.902 148.318 668.902 143.932C668.902 142.436 670.16 141.212 673.424 141.212C675.532 141.212 677.81 141.824 680.02 143.082L681.72 138.9C679.51 137.506 676.45 136.792 673.458 136.792C666.692 136.792 663.428 140.158 663.428 144.204C663.428 153.044 677.266 149.984 677.266 154.438C677.266 155.9 675.94 156.988 672.676 156.988C669.82 156.988 666.828 155.968 664.822 154.506L662.952 158.654C665.06 160.286 668.868 161.408 672.642 161.408ZM691.102 161H696.61V141.688H704.226V137.2H683.486V141.688H691.102V161ZM712.663 156.58V151.072H723.713V146.788H712.663V141.62H725.175V137.2H707.189V161H725.617V156.58H712.663ZM756.826 161L756.758 137.2H752.236L743.464 151.99L734.556 137.2H730V161H735.168V147.026L742.138 158.484H744.62L751.624 146.72L751.658 161H756.826ZM670.296 197.58V192.072H681.346V187.788H670.296V182.62H682.808V178.2H664.822V202H683.25V197.58H670.296ZM710.685 183.436C707.931 183.436 705.551 184.558 704.089 186.428C702.797 184.422 700.621 183.436 698.071 183.436C695.725 183.436 693.685 184.252 692.325 185.816V183.708H687.259V202H692.563V192.82C692.563 189.556 694.229 188.026 696.575 188.026C698.785 188.026 700.043 189.386 700.043 192.344V202H705.347V192.82C705.347 189.556 707.013 188.026 709.393 188.026C711.535 188.026 712.861 189.386 712.861 192.344V202H718.165V191.528C718.165 185.952 715.037 183.436 710.685 183.436ZM733.731 183.436C731.283 183.436 729.311 184.218 727.985 185.816V183.708H722.919V208.596H728.223V200.062C729.583 201.558 731.453 202.272 733.731 202.272C738.865 202.272 742.843 198.6 742.843 192.854C742.843 187.108 738.865 183.436 733.731 183.436ZM732.813 197.92C730.161 197.92 728.155 196.016 728.155 192.854C728.155 189.692 730.161 187.788 732.813 187.788C735.465 187.788 737.471 189.692 737.471 192.854C737.471 196.016 735.465 197.92 732.813 197.92ZM755.097 202.272C760.911 202.272 765.127 198.362 765.127 192.854C765.127 187.346 760.911 183.436 755.097 183.436C749.283 183.436 745.033 187.346 745.033 192.854C745.033 198.362 749.283 202.272 755.097 202.272ZM755.097 197.92C752.445 197.92 750.405 196.016 750.405 192.854C750.405 189.692 752.445 187.788 755.097 187.788C757.749 187.788 759.755 189.692 759.755 192.854C759.755 196.016 757.749 197.92 755.097 197.92ZM792.859 183.708L788.405 196.084L784.053 183.708H779.565L775.077 196.084L770.759 183.708H765.761L772.357 202H777.457L781.707 190.644L785.821 202H790.921L797.551 183.708H792.859ZM817.436 192.922C817.436 187.04 813.288 183.436 807.916 183.436C802.34 183.436 798.158 187.38 798.158 192.854C798.158 198.294 802.272 202.272 808.596 202.272C811.894 202.272 814.444 201.252 816.144 199.314L813.322 196.254C812.064 197.444 810.67 198.022 808.732 198.022C805.944 198.022 804.006 196.628 803.496 194.35H817.334C817.368 193.908 817.436 193.33 817.436 192.922ZM807.95 187.448C810.33 187.448 812.064 188.944 812.438 191.256H803.428C803.802 188.91 805.536 187.448 807.95 187.448ZM826.034 186.122V183.708H820.968V202H826.272V193.364C826.272 189.862 828.21 188.264 831.134 188.264C831.542 188.264 831.882 188.298 832.324 188.332V183.436C829.502 183.436 827.326 184.354 826.034 186.122ZM853.229 192.922C853.229 187.04 849.081 183.436 843.709 183.436C838.133 183.436 833.951 187.38 833.951 192.854C833.951 198.294 838.065 202.272 844.389 202.272C847.687 202.272 850.237 201.252 851.937 199.314L849.115 196.254C847.857 197.444 846.463 198.022 844.525 198.022C841.737 198.022 839.799 196.628 839.289 194.35H853.127C853.161 193.908 853.229 193.33 853.229 192.922ZM843.743 187.448C846.123 187.448 847.857 188.944 848.231 191.256H839.221C839.595 188.91 841.329 187.448 843.743 187.448ZM870.089 176.772V185.646C868.763 184.15 866.859 183.436 864.615 183.436C859.447 183.436 855.469 187.108 855.469 192.854C855.469 198.6 859.447 202.272 864.615 202.272C867.063 202.272 869.001 201.49 870.327 199.892V202H875.393V176.772H870.089ZM865.533 197.92C862.881 197.92 860.841 196.016 860.841 192.854C860.841 189.692 862.881 187.788 865.533 187.788C868.151 187.788 870.191 189.692 870.191 192.854C870.191 196.016 868.151 197.92 865.533 197.92Z" fill="white"/>
<path d="M311.672 56.4L264.04 202H227.848L195.816 103.408L162.744 202H126.76L78.9198 56.4H113.864L146.728 158.736L181.048 56.4H212.248L245.528 159.568L279.432 56.4H311.672ZM330.483 56.4H364.179V202H330.483V56.4ZM446.573 204.496C435.063 204.496 423.901 202.971 413.085 199.92C402.407 196.731 393.81 192.64 387.293 187.648L398.733 162.272C404.973 166.848 412.391 170.523 420.989 173.296C429.586 176.069 438.183 177.456 446.781 177.456C456.349 177.456 463.421 176.069 467.997 173.296C472.573 170.384 474.861 166.571 474.861 161.856C474.861 158.389 473.474 155.547 470.701 153.328C468.066 150.971 464.599 149.099 460.301 147.712C456.141 146.325 450.455 144.8 443.245 143.136C432.151 140.501 423.069 137.867 415.997 135.232C408.925 132.597 402.823 128.368 397.693 122.544C392.701 116.72 390.205 108.955 390.205 99.248C390.205 90.7893 392.493 83.1627 397.069 76.368C401.645 69.4347 408.509 63.9573 417.661 59.936C426.951 55.9147 438.253 53.904 451.565 53.904C460.855 53.904 469.938 55.0133 478.813 57.232C487.687 59.4507 495.453 62.64 502.109 66.8L491.709 92.384C478.258 84.7573 464.807 80.944 451.357 80.944C441.927 80.944 434.925 82.4693 430.349 85.52C425.911 88.5707 423.693 92.592 423.693 97.584C423.693 102.576 426.258 106.32 431.389 108.816C436.658 111.173 444.631 113.531 455.309 115.888C466.402 118.523 475.485 121.157 482.557 123.792C489.629 126.427 495.661 130.587 500.653 136.272C505.783 141.957 508.349 149.653 508.349 159.36C508.349 167.68 505.991 175.307 501.277 182.24C496.701 189.035 489.767 194.443 480.477 198.464C471.186 202.485 459.885 204.496 446.573 204.496ZM644.109 174.96V202H531.373V56.4H641.405V83.44H564.861V115.056H632.461V141.264H564.861V174.96H644.109Z" fill="white"/>
</svg>
