<svg width="28" height="30" viewBox="0 0 28 30" fill="none" xmlns="http://www.w3.org/2000/svg">
<path d="M28 15.3747C28 7.36779 21.7328 0.878479 14 0.878479C6.26719 0.878479 0 7.36779 0 15.3747C0 23.3816 6.26719 29.8709 14 29.8709C14.082 29.8709 14.1641 29.8709 14.2461 29.8652V18.5854H11.2383V14.9557H14.2461V12.2829C14.2461 9.18548 16.0727 7.49803 18.7414 7.49803C20.0211 7.49803 21.1203 7.5943 21.4375 7.6396V10.8786H19.6C18.1508 10.8786 17.8664 11.5921 17.8664 12.6397V14.95H21.3391L20.8852 18.5797H17.8664V29.3103C23.718 27.5719 28 21.9942 28 15.3747V15.3747Z" fill="#7C6DF1"/>
</svg>
