<svg width="29" height="30" viewBox="0 0 29 30" fill="none" xmlns="http://www.w3.org/2000/svg">
<path d="M16.7856 15.3547C16.7856 16.9042 15.5726 18.1602 14.0762 18.1602C12.5797 18.1602 11.3667 16.9042 11.3667 15.3547C11.3667 13.8052 12.5797 12.5492 14.0762 12.5492C15.5726 12.5492 16.7856 13.8052 16.7856 15.3547Z" fill="#7C6DF3"/>
<path d="M20.3633 10.4303C20.2341 10.0677 20.028 9.73957 19.7601 9.47021C19.5 9.19285 19.1833 8.9794 18.8329 8.84561C18.5488 8.73134 18.1219 8.59533 17.3357 8.55827C16.4852 8.51811 16.2302 8.50946 14.077 8.50946C11.9236 8.50946 11.6686 8.51789 10.8183 8.55805C10.0321 8.59533 9.60505 8.73134 9.32112 8.84561C8.97076 8.9794 8.65383 9.19285 8.3939 9.47021C8.12604 9.73957 7.9199 10.0675 7.79047 10.4303C7.68011 10.7245 7.54875 11.1667 7.51296 11.9808C7.47418 12.8612 7.46582 13.1253 7.46582 15.3549C7.46582 17.5844 7.47418 17.8484 7.51296 18.7291C7.54875 19.5432 7.68011 19.9851 7.79047 20.2794C7.9199 20.6421 8.12583 20.9701 8.39368 21.2394C8.65383 21.5168 8.97055 21.7302 9.32091 21.864C9.60505 21.9785 10.0321 22.1145 10.8183 22.1516C11.6686 22.1918 11.9234 22.2002 14.0768 22.2002C16.2304 22.2002 16.4854 22.1918 17.3355 22.1516C18.1217 22.1145 18.5488 21.9785 18.8329 21.864C19.5362 21.5831 20.0921 21.0076 20.3633 20.2794C20.4737 19.9851 20.6051 19.5432 20.6411 18.7291C20.6798 17.8484 20.688 17.5844 20.688 15.3549C20.688 13.1253 20.6798 12.8612 20.6411 11.9808C20.6053 11.1667 20.4739 10.7245 20.3633 10.4303V10.4303ZM14.077 19.6423C11.7899 19.6423 9.93591 17.7228 9.93591 15.3547C9.93591 12.9866 11.7899 11.0671 14.077 11.0671C16.3639 11.0671 18.2179 12.9866 18.2179 15.3547C18.2179 17.7228 16.3639 19.6423 14.077 19.6423ZM18.3816 11.8996C17.8472 11.8996 17.4139 11.4509 17.4139 10.8976C17.4139 10.3442 17.8472 9.89555 18.3816 9.89555C18.916 9.89555 19.3493 10.3442 19.3493 10.8976C19.3491 11.4509 18.916 11.8996 18.3816 11.8996Z" fill="#7C6DF3"/>
<path d="M14.0765 0.878479C6.35632 0.878479 0.0957031 7.36096 0.0957031 15.3548C0.0957031 23.3486 6.35632 29.8311 14.0765 29.8311C21.7968 29.8311 28.0574 23.3486 28.0574 15.3548C28.0574 7.36096 21.7968 0.878479 14.0765 0.878479ZM22.0562 18.7819C22.0173 19.6668 21.8815 20.2709 21.6831 20.7997C21.266 21.9163 20.4135 22.799 19.3351 23.2309C18.8246 23.4363 18.241 23.5768 17.3866 23.6172C16.5305 23.6576 16.257 23.6673 14.0768 23.6673C11.8963 23.6673 11.623 23.6576 10.7667 23.6172C9.91232 23.5768 9.32865 23.4363 8.81815 23.2309C8.28227 23.0221 7.79715 22.695 7.39609 22.272C6.98778 21.8569 6.67183 21.3544 6.47024 20.7997C6.27184 20.2711 6.13595 19.6668 6.09712 18.7821C6.05765 17.8955 6.04848 17.6123 6.04848 15.3548C6.04848 13.0973 6.05765 12.8141 6.09691 11.9277C6.13573 11.0428 6.27141 10.4386 6.46981 9.90982C6.67141 9.35516 6.98756 8.85263 7.39609 8.43758C7.79694 8.01457 8.28227 7.68744 8.81794 7.47869C9.32865 7.27327 9.91211 7.13278 10.7667 7.09236C11.6228 7.05193 11.8963 7.04221 14.0765 7.04221C16.2568 7.04221 16.5303 7.05193 17.3864 7.09258C18.241 7.13278 18.8244 7.27327 19.3351 7.47847C19.8708 7.68721 20.3561 8.01457 20.7572 8.43758C21.1655 8.85285 21.4817 9.35516 21.6831 9.90982C21.8817 10.4386 22.0173 11.0428 22.0564 11.9277C22.0954 12.8141 22.1046 13.0973 22.1046 15.3548C22.1046 17.6123 22.0954 17.8955 22.0562 18.7819V18.7819Z" fill="#7C6DF3"/>
<path d="M14.0765 0.878479C6.35632 0.878479 0.0957031 7.36096 0.0957031 15.3548C0.0957031 23.3486 6.35632 29.8311 14.0765 29.8311C21.7968 29.8311 28.0574 23.3486 28.0574 15.3548C28.0574 7.36096 21.7968 0.878479 14.0765 0.878479ZM22.0562 18.7819C22.0173 19.6668 21.8815 20.2709 21.6831 20.7997C21.266 21.9163 20.4135 22.799 19.3351 23.2309C18.8246 23.4363 18.241 23.5768 17.3866 23.6172C16.5305 23.6576 16.257 23.6673 14.0768 23.6673C11.8963 23.6673 11.623 23.6576 10.7667 23.6172C9.91232 23.5768 9.32865 23.4363 8.81815 23.2309C8.28227 23.0221 7.79715 22.695 7.39609 22.272C6.98778 21.8569 6.67183 21.3544 6.47024 20.7997C6.27184 20.2711 6.13595 19.6668 6.09712 18.7821C6.05765 17.8955 6.04848 17.6123 6.04848 15.3548C6.04848 13.0973 6.05765 12.8141 6.09691 11.9277C6.13573 11.0428 6.27141 10.4386 6.46981 9.90982C6.67141 9.35516 6.98756 8.85263 7.39609 8.43758C7.79694 8.01457 8.28227 7.68744 8.81794 7.47869C9.32865 7.27327 9.91211 7.13278 10.7667 7.09236C11.6228 7.05193 11.8963 7.04221 14.0765 7.04221C16.2568 7.04221 16.5303 7.05193 17.3864 7.09258C18.241 7.13278 18.8244 7.27327 19.3351 7.47847C19.8708 7.68721 20.3561 8.01457 20.7572 8.43758C21.1655 8.85285 21.4817 9.35516 21.6831 9.90982C21.8817 10.4386 22.0173 11.0428 22.0564 11.9277C22.0954 12.8141 22.1046 13.0973 22.1046 15.3548C22.1046 17.6123 22.0954 17.8955 22.0562 18.7819V18.7819Z" fill="#7C6DF1"/>
</svg>
