<svg xmlns="http://www.w3.org/2000/svg" viewBox="0 0 111.65 103.43"><defs><style>.cls-1{fill:#fff;}</style></defs><g id="Layer_2" data-name="Layer 2"><g id="Bold"><polygon class="cls-1" points="49.82 74.97 35.92 103.43 0 31.85 12.17 31.85 35.79 78.91 43.77 62.58 49.82 74.97"/><path class="cls-1" d="M111.65,31.85,75.73,103.43,68.6,88.82l.08,0L49.9,50.35a31.3,31.3,0,0,0,5.93.57,30.31,30.31,0,0,0,6.06-.6l14,28.59L99.48,31.85Z"/><path class="cls-1" d="M55.83,0a20,20,0,0,0-1,40c.34,0,.69,0,1,0s.69,0,1,0a20,20,0,0,0-1-40Zm0,29.16A9.14,9.14,0,1,1,65,20,9.15,9.15,0,0,1,55.83,29.16Z"/></g></g></svg>