<svg width="28" height="30" viewBox="0 0 28 30" fill="none" xmlns="http://www.w3.org/2000/svg">
<path d="M14 0.878479C6.2692 0.878479 0 7.36987 0 15.3747C0 23.3795 6.2692 29.8709 14 29.8709C21.7308 29.8709 28 23.3795 28 15.3747C28 7.36987 21.7308 0.878479 14 0.878479ZM20.3922 12.1811C20.3984 12.3237 20.4014 12.4671 20.4014 12.6111C20.4014 17.0078 17.1693 22.0778 11.2586 22.078H11.2588H11.2586C9.44385 22.078 7.75516 21.5272 6.33307 20.5834C6.5845 20.6141 6.84042 20.6294 7.09955 20.6294C8.60516 20.6294 9.99072 20.0976 11.0907 19.2051C9.68396 19.1781 8.49792 18.2161 8.08862 16.8941C8.28452 16.933 8.48596 16.9542 8.69254 16.9542C8.98584 16.9542 9.26996 16.9133 9.53998 16.837C8.06961 16.5322 6.96198 15.1867 6.96198 13.5755C6.96198 13.5604 6.96198 13.547 6.9624 13.533C7.39542 13.7823 7.89059 13.9323 8.41782 13.9491C7.55499 13.353 6.98782 12.3339 6.98782 11.1795C6.98782 10.5699 7.14697 9.99877 7.42297 9.50706C9.00763 11.5204 11.3759 12.8444 14.0466 12.9836C13.9915 12.7398 13.963 12.4859 13.963 12.2249C13.963 10.3881 15.4022 8.89789 17.1768 8.89789C18.1011 8.89789 18.936 9.30245 19.5224 9.94922C20.2545 9.7997 20.9419 9.52276 21.5629 9.14164C21.3226 9.91826 20.8133 10.5699 20.1498 10.982C20.7998 10.9015 21.4193 10.723 21.9951 10.458C21.565 11.1253 21.0197 11.7115 20.3922 12.1811V12.1811Z" fill="#7C6DF1"/>
</svg>
