<?xml version="1.0" encoding="utf-8"?>
<!-- Generator: Adobe Illustrator 24.2.1, SVG Export Plug-In . SVG Version: 6.00 Build 0)  -->
<svg version="1.1" id="Layer_1" xmlns="http://www.w3.org/2000/svg" xmlns:xlink="http://www.w3.org/1999/xlink" x="0px" y="0px"
	 viewBox="0 0 11 11" style="enable-background:new 0 0 11 11;" xml:space="preserve">
<style type="text/css">
	.st0{fill:#FFFFFF;}
</style>
<path class="st0" d="M8.2,11H1.4C0.6,11,0,10.4,0,9.6V2.8C0,2,0.6,1.3,1.4,1.3H7c0.2,0,0.3,0.1,0.3,0.3c0,0.2-0.1,0.3-0.3,0.3H1.4
	C1,1.9,0.6,2.3,0.6,2.8v6.8c0,0.5,0.4,0.8,0.8,0.8h6.8c0.5,0,0.8-0.4,0.8-0.8V4c0-0.2,0.1-0.3,0.3-0.3c0.2,0,0.3,0.1,0.3,0.3v5.6
	C9.7,10.4,9,11,8.2,11z"/>
<path class="st0" d="M4.8,6.5c-0.1,0-0.2,0-0.2-0.1C4.5,6.3,4.5,6.1,4.6,6l5.9-5.9c0.1-0.1,0.3-0.1,0.4,0c0.1,0.1,0.1,0.3,0,0.4
	L5,6.4C5,6.4,4.9,6.5,4.8,6.5z"/>
<path class="st0" d="M10.7,3.3c-0.2,0-0.3-0.1-0.3-0.3V0.6H7.9c-0.2,0-0.3-0.1-0.3-0.3C7.6,0.1,7.8,0,7.9,0H11v3
	C11,3.2,10.9,3.3,10.7,3.3z"/>
</svg>
