<svg width="23" height="19" viewBox="0 0 23 19" fill="none" xmlns="http://www.w3.org/2000/svg">
<path d="M19.7613 5.07548C19.7613 4.87644 19.7527 4.68173 19.7441 4.48701C20.6379 3.85096 21.3898 3.05048 22.0043 2.13317C21.1836 2.49231 20.3156 2.73461 19.4047 2.85144C20.3414 2.28894 21.0547 1.40625 21.3898 0.341827C20.5176 0.865384 19.5551 1.23317 18.5281 1.44086C17.7031 0.549519 16.5215 0 15.2367 0C12.7402 0 10.7293 2.04231 10.7293 4.54327C10.7293 4.9024 10.7594 5.24855 10.8324 5.5774C7.08555 5.39567 3.76406 3.58269 1.53398 0.826442C1.14727 1.50577 0.915234 2.28461 0.915234 3.12404C0.915234 4.69903 1.71875 6.0923 2.91758 6.89711C2.19141 6.88413 1.48242 6.67211 0.880859 6.33894V6.39086C0.880859 8.59759 2.44492 10.4322 4.49453 10.8519C3.80703 11.0423 2.95625 11.0336 2.45781 10.9255C3.04219 12.7255 4.70078 14.0452 6.67305 14.0884C5.13906 15.2957 3.18828 16.0269 1.07852 16.0269C0.708984 16.0269 0.352344 16.0096 0 15.9663C1.99805 17.2644 4.36562 18.0043 6.91797 18.0043C15.2238 18 19.7613 11.0769 19.7613 5.07548Z" fill="#7C6DF1"/>
</svg>
