<svg width="22" height="18" viewBox="0 0 22 18" fill="none" xmlns="http://www.w3.org/2000/svg">
<g clip-path="url(#clip0)">
<path d="M19.7555 5.07548C19.7555 4.87644 19.7469 4.68173 19.7383 4.48701C20.632 3.85096 21.384 3.05048 21.9984 2.13317C21.1777 2.49231 20.3098 2.73461 19.3988 2.85144C20.3355 2.28894 21.0488 1.40625 21.384 0.341827C20.5117 0.865384 19.5492 1.23317 18.5223 1.44086C17.6973 0.549519 16.5156 0 15.2309 0C12.7344 0 10.7234 2.04231 10.7234 4.54326C10.7234 4.9024 10.7535 5.24855 10.8266 5.5774C7.07969 5.39567 3.7582 3.58269 1.52812 0.826442C1.14141 1.50577 0.909375 2.28461 0.909375 3.12404C0.909375 4.69903 1.71289 6.0923 2.91172 6.89711C2.18555 6.88413 1.47656 6.67211 0.875 6.33894V6.39086C0.875 8.59759 2.43906 10.4322 4.48867 10.8519C3.80117 11.0423 2.95039 11.0336 2.45195 10.9255C3.03633 12.7255 4.69492 14.0452 6.66719 14.0884C5.1332 15.2957 3.18242 16.0269 1.07266 16.0269C0.703125 16.0269 0.346484 16.0096 -0.00585938 15.9663C1.99219 17.2644 4.35977 18.0043 6.91211 18.0043C15.218 18 19.7555 11.0769 19.7555 5.07548Z" fill="white"/>
</g>
<defs>
<clipPath id="clip0">
<rect width="22" height="18" fill="white"/>
</clipPath>
</defs>
</svg>
