<svg width="145" height="145" viewBox="0 0 145 145" fill="none" xmlns="http://www.w3.org/2000/svg">
<circle cx="72.5" cy="72.5" r="72.5" fill="#F2D747"/>
<mask id="mask0" mask-type="alpha" maskUnits="userSpaceOnUse" x="0" y="0" width="145" height="145">
<circle cx="72.5" cy="72.5" r="72.5" fill="#A3F7E9"/>
</mask>
<g mask="url(#mask0)">
<path d="M69.4166 87.7917C69.4166 87.7917 70.9582 66.3333 64.3332 55.4583C57.3332 64.7917 37.2916 56.0417 46.1666 44.375C21.2082 39.7083 22.4166 21.4167 31.0416 13.5C20.2499 -5.75001 47.7916 -26.125 63.5416 -4.37501C75.2499 -21.4167 100.542 -4.00001 94.1666 4.74999C116.958 -9.54168 130.083 9.58332 126.375 29.25C121.375 55.6666 99.2082 44.625 99.2082 44.625C99.2082 44.625 99.4582 61.9583 83.6249 56.7917C76.2916 63.7083 73.8749 75.2083 75.5416 86.7917C72.7916 87.25 69.4166 87.7917 69.4166 87.7917Z" fill="#DF7668"/>
<path d="M67.8753 88.8755L39.7503 137.542C37.6253 141.251 40.2919 145.834 44.5419 145.834H100.75C105 145.834 107.667 141.251 105.542 137.542L77.4586 88.8755C75.2919 85.2089 70.0003 85.2089 67.8753 88.8755Z" fill="#7C6DF1"/>
<path d="M78.4168 77.3336H66.8335V98.5836H78.4168V77.3336Z" fill="#7C6DF1"/>
<path d="M81.792 79.792H63.5003C62.167 79.792 61.042 78.7086 61.042 77.3336C61.042 76.0003 62.1253 74.8753 63.5003 74.8753H81.792C83.1253 74.8753 84.2503 75.9586 84.2503 77.3336C84.2087 78.7086 83.1253 79.792 81.792 79.792Z" fill="#7C6DF1"/>
<path d="M102.792 58.667C103.551 58.667 104.167 58.0514 104.167 57.292C104.167 56.5326 103.551 55.917 102.792 55.917C102.032 55.917 101.417 56.5326 101.417 57.292C101.417 58.0514 102.032 58.667 102.792 58.667Z" fill="#0B1147"/>
<path d="M52.0825 69.5833C52.7729 69.5833 53.3325 69.0237 53.3325 68.3333C53.3325 67.643 52.7729 67.0833 52.0825 67.0833C51.3922 67.0833 50.8325 67.643 50.8325 68.3333C50.8325 69.0237 51.3922 69.5833 52.0825 69.5833Z" fill="#0B1147"/>
<path d="M38.5407 49.3751C39.047 49.3751 39.4574 48.9647 39.4574 48.4584C39.4574 47.9522 39.047 47.5418 38.5407 47.5418C38.0344 47.5418 37.624 47.9522 37.624 48.4584C37.624 48.9647 38.0344 49.3751 38.5407 49.3751Z" fill="#0B1147"/>
<path d="M107.166 53.3754C107.672 53.3754 108.082 52.9649 108.082 52.4587C108.082 51.9524 107.672 51.542 107.166 51.542C106.659 51.542 106.249 51.9524 106.249 52.4587C106.249 52.9649 106.659 53.3754 107.166 53.3754Z" fill="#0B1147"/>
<path d="M80.0549 28.6932C80.0549 28.6932 86.4059 19.9421 94.7425 26.1829" stroke="#FCDC3A" stroke-width="2.08333" stroke-miterlimit="10" stroke-linecap="round" stroke-linejoin="round"/>
<path d="M44.0232 20.3248C44.0232 20.3248 45.4976 9.61291 55.7919 11.1856" stroke="#FCDC3A" stroke-width="2.08333" stroke-miterlimit="10" stroke-linecap="round" stroke-linejoin="round"/>
<path d="M47.4995 57.9169C47.4995 57.9169 38.1248 48.7502 49.7912 40.6253" stroke="#FCDC3A" stroke-width="2.08333" stroke-miterlimit="10" stroke-linecap="round" stroke-linejoin="round"/>
<path d="M63.0407 120.667H49.124C48.624 120.667 48.249 120.292 48.249 119.792C48.249 119.292 48.624 118.917 49.124 118.917H63.0407C63.5407 118.917 63.9157 119.292 63.9157 119.792C63.9157 120.292 63.5407 120.667 63.0407 120.667Z" fill="#0B1147"/>
<path d="M58.9162 128.791H44.9995C44.4995 128.791 44.1245 128.416 44.1245 127.916C44.1245 127.416 44.4995 127.041 44.9995 127.041H58.9162C59.4162 127.041 59.7912 127.416 59.7912 127.916C59.7912 128.416 59.4162 128.791 58.9162 128.791Z" fill="#0B1147"/>
<path d="M66.7497 112.542H52.833C52.333 112.542 51.958 112.167 51.958 111.667C51.958 111.167 52.333 110.792 52.833 110.792H66.7497C67.2497 110.792 67.6247 111.167 67.6247 111.667C67.6247 112.167 67.2497 112.542 66.7497 112.542Z" fill="#0B1147"/>
</g>
</svg>
