<svg width="184" height="186" viewBox="0 0 184 186" fill="none" xmlns="http://www.w3.org/2000/svg">
<path d="M75.2228 110.217L48.576 98.6565L27.3242 114.324L29.9051 143.627L57.4942 155.247L78.746 139.58L75.2228 110.217Z" fill="#7C6DF3" fill-opacity="0.5"/>
<path d="M147.02 154.525L209.314 153.87L178.734 208.147L147.02 154.525Z" fill="#7C6DF3" fill-opacity="0.5"/>
<path d="M212.376 20.3148L176.375 4.69531L147.663 25.8628L151.15 65.4529L188.424 81.1522L217.136 59.9846L212.376 20.3148Z" fill="#7C6DF3" fill-opacity="0.5"/>
<rect x="103.608" y="208.217" width="51.772" height="51.772" transform="rotate(-135 103.608 208.217)" fill="#7C6DF3" fill-opacity="0.5"/>
<path d="M62.8717 74.4544L121.763 54.1361L109.914 115.297L62.8717 74.4544Z" fill="#7C6DF3" fill-opacity="0.5"/>
<circle cx="150.376" cy="113.055" r="27.2484" transform="rotate(-79.035 150.376 113.055)" fill="#7C6DF3" fill-opacity="0.5"/>
<circle cx="31.9339" cy="194.674" r="27.2484" transform="rotate(-79.035 31.9339 194.674)" fill="#7C6DF3" fill-opacity="0.5"/>
</svg>
