<?xml version="1.0" encoding="utf-8"?>
<!-- Generator: Adobe Illustrator 24.2.1, SVG Export Plug-In . SVG Version: 6.00 Build 0)  -->
<svg version="1.1" id="Layer_1" xmlns="http://www.w3.org/2000/svg" xmlns:xlink="http://www.w3.org/1999/xlink" x="0px" y="0px"
	 viewBox="0 0 30 30" style="enable-background:new 0 0 30 30;" xml:space="preserve">
<style type="text/css">
	.st0{fill:#7C6DF1;}
</style>
<path class="st0" d="M30,14.9C30,6.7,23.3,0,15,0C6.7,0,0,6.7,0,14.9c0,8.2,6.7,14.9,15,14.9c0.1,0,0.2,0,0.3,0V18.2H12v-3.7h3.2
	v-2.8c0-3.2,2-4.9,4.8-4.9c1.4,0,2.5,0.1,2.9,0.1v3.3h-2c-1.6,0-1.9,0.7-1.9,1.8v2.4h3.7l-0.5,3.7h-3.2v11.1
	C25.4,27.5,30,21.8,30,14.9L30,14.9z"/>
</svg>
