<?xml version="1.0" encoding="utf-8"?>
<!-- Generator: Adobe Illustrator 24.2.1, SVG Export Plug-In . SVG Version: 6.00 Build 0)  -->
<svg version="1.1" id="Layer_1" xmlns="http://www.w3.org/2000/svg" xmlns:xlink="http://www.w3.org/1999/xlink" x="0px" y="0px"
	 viewBox="0 0 30 30" style="enable-background:new 0 0 30 30;" xml:space="preserve">
<style type="text/css">
	.st0{fill:#7C6DF3;}
	.st1{fill:#7C6DF1;}
</style>
<path class="st0" d="M17.9,14.9c0,1.6-1.3,2.9-2.9,2.9c-1.6,0-2.9-1.3-2.9-2.9S13.4,12,15,12C16.6,12,17.9,13.3,17.9,14.9z"/>
<path class="st0" d="M21.8,9.8c-0.1-0.4-0.4-0.7-0.6-1c-0.3-0.3-0.6-0.5-1-0.6c-0.3-0.1-0.8-0.3-1.6-0.3c-0.9,0-1.2-0.1-3.5-0.1
	c-2.3,0-2.6,0-3.5,0.1c-0.8,0-1.3,0.2-1.6,0.3C9.6,8.3,9.2,8.6,9,8.9c-0.3,0.3-0.5,0.6-0.6,1c-0.1,0.3-0.3,0.8-0.3,1.6
	C8,12.3,8,12.6,8,14.9c0,2.3,0,2.6,0.1,3.5c0,0.8,0.2,1.3,0.3,1.6c0.1,0.4,0.4,0.7,0.6,1c0.3,0.3,0.6,0.5,1,0.6
	c0.3,0.1,0.8,0.3,1.6,0.3c0.9,0,1.2,0.1,3.5,0.1c2.3,0,2.6,0,3.5-0.1c0.8,0,1.3-0.2,1.6-0.3c0.8-0.3,1.3-0.9,1.6-1.6
	c0.1-0.3,0.3-0.8,0.3-1.6c0-0.9,0.1-1.2,0.1-3.5c0-2.3,0-2.6-0.1-3.5C22,10.6,21.9,10.1,21.8,9.8L21.8,9.8z M15,19.3
	c-2.4,0-4.4-2-4.4-4.4s2-4.4,4.4-4.4c2.4,0,4.4,2,4.4,4.4S17.5,19.3,15,19.3z M19.7,11.4c-0.6,0-1-0.5-1-1c0-0.6,0.5-1,1-1
	c0.6,0,1,0.5,1,1C20.7,10.9,20.2,11.4,19.7,11.4z"/>
<path class="st0" d="M15,0c-8.3,0-15,6.7-15,14.9c0,8.2,6.7,14.9,15,14.9c8.3,0,15-6.7,15-14.9C30,6.7,23.3,0,15,0z M23.6,18.4
	c0,0.9-0.2,1.5-0.4,2.1c-0.4,1.2-1.4,2.1-2.5,2.5c-0.5,0.2-1.2,0.4-2.1,0.4c-0.9,0-1.2,0.1-3.5,0.1c-2.3,0-2.6,0-3.5-0.1
	c-0.9,0-1.5-0.2-2.1-0.4c-0.6-0.2-1.1-0.6-1.5-1c-0.4-0.4-0.8-0.9-1-1.5c-0.2-0.5-0.4-1.2-0.4-2.1c0-0.9-0.1-1.2-0.1-3.5
	s0-2.6,0.1-3.5c0-0.9,0.2-1.5,0.4-2.1c0.2-0.6,0.6-1.1,1-1.5c0.4-0.4,0.9-0.8,1.5-1c0.5-0.2,1.2-0.4,2.1-0.4c0.9,0,1.2-0.1,3.5-0.1
	c2.3,0,2.6,0,3.5,0.1c0.9,0,1.5,0.2,2.1,0.4c0.6,0.2,1.1,0.6,1.5,1c0.4,0.4,0.8,0.9,1,1.5c0.2,0.5,0.4,1.2,0.4,2.1
	c0,0.9,0.1,1.2,0.1,3.5S23.6,17.5,23.6,18.4L23.6,18.4z"/>
<path class="st1" d="M15,0c-8.3,0-15,6.7-15,14.9c0,8.2,6.7,14.9,15,14.9c8.3,0,15-6.7,15-14.9C30,6.7,23.3,0,15,0z M23.6,18.4
	c0,0.9-0.2,1.5-0.4,2.1c-0.4,1.2-1.4,2.1-2.5,2.5c-0.5,0.2-1.2,0.4-2.1,0.4c-0.9,0-1.2,0.1-3.5,0.1c-2.3,0-2.6,0-3.5-0.1
	c-0.9,0-1.5-0.2-2.1-0.4c-0.6-0.2-1.1-0.6-1.5-1c-0.4-0.4-0.8-0.9-1-1.5c-0.2-0.5-0.4-1.2-0.4-2.1c0-0.9-0.1-1.2-0.1-3.5
	s0-2.6,0.1-3.5c0-0.9,0.2-1.5,0.4-2.1c0.2-0.6,0.6-1.1,1-1.5c0.4-0.4,0.9-0.8,1.5-1c0.5-0.2,1.2-0.4,2.1-0.4c0.9,0,1.2-0.1,3.5-0.1
	c2.3,0,2.6,0,3.5,0.1c0.9,0,1.5,0.2,2.1,0.4c0.6,0.2,1.1,0.6,1.5,1c0.4,0.4,0.8,0.9,1,1.5c0.2,0.5,0.4,1.2,0.4,2.1
	c0,0.9,0.1,1.2,0.1,3.5S23.6,17.5,23.6,18.4L23.6,18.4z"/>
</svg>
