<svg width="11" height="11" viewBox="0 0 11 11" fill="none" xmlns="http://www.w3.org/2000/svg">
<path d="M8.2499 11.0006H1.42159C0.635056 11.0006 0 10.3597 0 9.579V2.75069C0 1.96998 0.635056 1.3291 1.42159 1.3291H7.04388C7.20701 1.3291 7.33519 1.45728 7.33519 1.62041C7.33519 1.78355 7.20701 1.91172 7.04388 1.91172H1.42159C0.961323 1.91172 0.58262 2.2846 0.58262 2.75069V9.579C0.58262 10.0393 0.955497 10.418 1.42159 10.418H8.2499C8.71017 10.418 9.08887 10.0451 9.08887 9.579V3.96837C9.08887 3.80524 9.21705 3.67706 9.38018 3.67706C9.54331 3.67706 9.67149 3.80524 9.67149 3.96837V9.579C9.66567 10.3597 9.03061 11.0006 8.2499 11.0006Z" fill="#331F9F"/>
<path d="M4.83574 6.45592C4.76 6.45592 4.68426 6.42679 4.63183 6.36853C4.5153 6.252 4.5153 6.07139 4.63183 5.95486L10.4988 0.0878813C10.6153 -0.0286427 10.7959 -0.0286427 10.9125 0.0878813C11.029 0.204405 11.029 0.385017 10.9125 0.501541L5.03966 6.36853C4.9814 6.42679 4.90566 6.45592 4.83574 6.45592Z" fill="#331F9F"/>
<path d="M10.7089 3.30977C10.5457 3.30977 10.4176 3.18159 10.4176 3.01846V0.583108H7.9356C7.77246 0.583108 7.64429 0.454932 7.64429 0.291798C7.64429 0.128665 7.77246 0.000488281 7.9356 0.000488281H11.0002V3.01846C11.0002 3.17577 10.8662 3.30977 10.7089 3.30977Z" fill="#331F9F"/>
</svg>
