<?xml version="1.0" encoding="utf-8"?>
<!-- Generator: Adobe Illustrator 24.2.1, SVG Export Plug-In . SVG Version: 6.00 Build 0)  -->
<svg version="1.1" id="Bold" xmlns="http://www.w3.org/2000/svg" xmlns:xlink="http://www.w3.org/1999/xlink" x="0px" y="0px"
	 viewBox="0 0 30 30" style="enable-background:new 0 0 30 30;" xml:space="preserve">
<style type="text/css">
	.st0{fill:#7C6DF1;}
	.st1{fill:#007AB9;}
</style>
<path class="st0" d="M15,0C6.7,0,0,6.7,0,15c0,8.3,6.7,15,15,15c8.3,0,15-6.7,15-15C30,6.7,23.3,0,15,0z M11,22.4H7.4V11.6H11V22.4z
	 M9.2,10.1L9.2,10.1c-1.2,0-2-0.8-2-1.9c0-1.1,0.8-1.9,2-1.9c1.2,0,2,0.8,2,1.9C11.3,9.3,10.5,10.1,9.2,10.1z M24,22.4h-3.6v-5.8
	c0-1.4-0.5-2.4-1.8-2.4c-1,0-1.6,0.7-1.8,1.3c-0.1,0.2-0.1,0.6-0.1,0.9v6H13c0,0,0-9.8,0-10.8h3.6v1.5c0.5-0.7,1.3-1.8,3.2-1.8
	c2.4,0,4.1,1.5,4.1,4.9V22.4z"/>
<path class="st1" d="M16.6,13.2L16.6,13.2C16.6,13.2,16.6,13.2,16.6,13.2L16.6,13.2z"/>
</svg>
