<?xml version="1.0" encoding="utf-8"?>
<!-- Generator: Adobe Illustrator 24.2.1, SVG Export Plug-In . SVG Version: 6.00 Build 0)  -->
<svg version="1.1" id="Bold" xmlns="http://www.w3.org/2000/svg" xmlns:xlink="http://www.w3.org/1999/xlink" x="0px" y="0px"
	 viewBox="0 0 30 30" style="enable-background:new 0 0 30 30;" xml:space="preserve">
<style type="text/css">
	.st0{fill:#7C6DF1;}
</style>
<path class="st0" d="M15,0C6.7,0,0,6.7,0,15s6.7,15,15,15s15-6.7,15-15S23.3,0,15,0z M12.3,4.7C12.3,4.7,12.3,4.7,12.3,4.7
	c1.2,0,2.2,1,2.2,2.2c0,1.2,0,0.9,0,2.2h-2.2c-1.2,0-2.2-1-2.2-2.2C10.1,5.7,11.1,4.7,12.3,4.7z M9,17.7c0,1.2-1,2.2-2.2,2.2
	s-2.2-1-2.2-2.2c0-1.2,1-2.2,2.2-2.2c0,0,0,0,0,0H9V17.7z M14.5,23.1c0,1.2-1,2.2-2.2,2.2c-1.2,0-2.2-1-2.2-2.2v-5.4
	c0-1.2,1-2.2,2.2-2.2c1.2,0,2.2,1,2.2,2.2V23.1z M12.3,14.5H6.9c-1.2,0-2.2-1-2.2-2.2c0-1.2,1-2.2,2.2-2.2h5.4c1.2,0,2.2,1,2.2,2.2
	C14.5,13.5,13.5,14.5,12.3,14.5z M21,12.3L21,12.3c0-1.2,1-2.2,2.2-2.2c0,0,0,0,0,0c1.2,0,2.2,1,2.2,2.2s-1,2.2-2.2,2.2H21V12.3z
	 M15.5,6.9c0-1.2,1-2.2,2.2-2.2c1.2,0,2.2,1,2.2,2.2v5.4c0,1.2-1,2.2-2.2,2.2c-1.2,0-2.2-1-2.2-2.2V6.9z M17.7,25.3
	c-1.2,0-2.2-1-2.2-2.2V21h2.2c1.2,0,2.2,1,2.2,2.2C19.9,24.3,18.9,25.3,17.7,25.3z M23.1,19.9h-5.4c-1.2,0-2.2-1-2.2-2.2
	c0-1.2,1-2.2,2.2-2.2h5.4c1.2,0,2.2,1,2.2,2.2C25.3,18.9,24.3,19.9,23.1,19.9z"/>
</svg>
